<svg width="25" height="23" viewBox="0 0 25 23" fill="none" xmlns="http://www.w3.org/2000/svg">
<path d="M1.04151 7.52897C1.18551 7.98099 1.66152 8.2281 2.10478 8.08151L4.43402 6.93102C3.76183 8.34883 3.40977 9.90792 3.40977 11.5C3.40977 17.2897 8.02806 22 13.7049 22C19.3816 22 24 17.2897 24 11.5C24 5.71027 19.3816 1 13.7049 1C13.2389 1 12.861 1.38537 12.861 1.86065C12.861 2.33587 13.2389 2.72131 13.7049 2.72131C18.451 2.72131 22.3123 6.65933 22.3123 11.5C22.3123 16.3406 18.451 20.2787 13.7049 20.2787C8.95867 20.2787 5.09749 16.3406 5.09749 11.5C5.09749 10.1662 5.39258 8.8604 5.95641 7.67401L6.98859 9.59299C7.13259 10.0449 7.60873 10.2923 8.05186 10.1455C8.49512 9.9986 8.73775 9.51305 8.59375 9.06104L6.94137 5.19546C6.82559 4.83171 6.49479 4.60043 6.13902 4.60043C6.05268 4.60043 5.96472 4.61407 5.8781 4.64271L1.58334 6.44434C1.14014 6.59127 0.897516 7.07675 1.04151 7.52897Z" fill="#AEAEAE" stroke="#AEAEAE" stroke-width="0.3"/>
<rect x="10" y="13" width="10" height="2" rx="1" fill="#AEAEAE"/>
<rect x="10" y="10" width="7" height="2" rx="1" fill="#AEAEAE"/>
<rect x="10" y="7" width="5" height="2" rx="1" fill="#AEAEAE"/>
</svg>
